<?xml version="1.0" standalone="no"?>
<!DOCTYPE svg PUBLIC "-//W3C//DTD SVG 20010904//EN"
 "http://www.w3.org/TR/2001/REC-SVG-20010904/DTD/svg10.dtd">
<svg version="1.0" xmlns="http://www.w3.org/2000/svg"
 width="1592.000000pt" height="1592.000000pt" viewBox="0 0 1592.000000 1592.000000"
 preserveAspectRatio="xMidYMid meet">
<metadata>
Created by potrace 1.14, written by Peter Selinger 2001-2017
</metadata>
<g transform="translate(0.000000,1592.000000) scale(0.100000,-0.100000)"
fill="#000000" stroke="none">
<path d="M8720 12625 c-7 -8 4 -46 36 -124 39 -98 73 -232 99 -383 l6 -38 -73
41 c-159 88 -330 161 -484 207 -83 25 -342 77 -434 87 -36 4 -73 9 -83 11 -41
7 -241 18 -347 18 -273 1 -526 -48 -741 -143 -70 -31 -171 -109 -167 -128 2
-11 24 -23 61 -34 62 -18 107 -43 107 -59 0 -6 -8 -10 -17 -10 -54 0 -353 -89
-478 -142 -286 -121 -488 -221 -903 -450 -310 -171 -431 -226 -587 -269 -60
-17 -116 -36 -123 -43 -19 -18 52 -120 120 -172 65 -50 177 -114 236 -134 l44
-16 -64 -49 c-79 -62 -248 -229 -317 -314 -194 -238 -375 -608 -461 -941 -78
-303 -100 -504 -94 -840 4 -223 6 -245 30 -370 37 -190 62 -213 108 -100 28
69 47 110 49 110 2 0 4 -35 5 -77 1 -43 5 -100 8 -128 6 -63 23 -209 30 -255
10 -72 75 -408 94 -489 11 -46 18 -86 16 -88 -2 -3 -23 -9 -47 -14 -150 -34
-279 -154 -345 -320 -98 -250 -91 -610 21 -1078 64 -265 146 -442 311 -667 60
-82 137 -187 169 -233 129 -181 240 -245 465 -266 36 -4 68 -10 71 -13 3 -4
20 -81 38 -172 30 -157 35 -180 46 -233 2 -12 7 -35 11 -52 18 -93 88 -278
146 -390 128 -247 479 -649 789 -907 24 -20 54 -44 66 -55 37 -31 56 -47 103
-83 25 -19 47 -37 50 -40 5 -5 22 -17 179 -127 57 -40 97 -74 90 -77 -8 -2
-90 -22 -182 -44 -179 -44 -182 -45 -327 -160 -202 -160 -188 -152 -324 -173
-66 -10 -139 -21 -161 -24 -40 -6 -203 -31 -260 -41 -16 -2 -55 -9 -85 -14
-30 -5 -73 -11 -96 -14 -46 -6 -505 -84 -544 -92 -58 -13 -149 -44 -204 -68
-62 -27 -196 -113 -255 -163 l-34 -29 84 -49 c46 -27 102 -58 124 -70 268
-145 347 -187 450 -236 809 -384 1606 -598 2535 -680 162 -14 805 -20 985 -8
848 53 1626 236 2400 566 170 72 443 204 575 278 58 32 134 74 170 93 36 20
95 54 132 77 l68 42 -23 20 c-142 128 -385 231 -584 248 -68 5 -259 28 -348
40 -16 3 -84 11 -150 20 -66 8 -133 17 -150 20 -16 2 -88 11 -160 20 -71 8
-148 18 -170 20 -121 16 -112 10 -295 165 -96 81 -184 151 -195 157 -39 20
-150 56 -255 82 -59 14 -106 30 -106 36 1 5 66 56 145 112 331 238 566 455
866 805 97 112 218 294 269 403 28 60 65 152 92 232 14 40 68 285 80 361 3 20
8 40 9 43 2 3 7 25 10 50 3 24 9 60 13 79 l8 34 95 12 c214 27 314 82 421 228
103 141 126 173 205 281 45 61 100 141 122 179 95 164 179 419 230 709 30 168
36 244 35 447 -1 165 -4 196 -27 283 -37 140 -86 236 -157 307 -94 94 -220
146 -331 138 -55 -4 -58 -3 -54 16 5 27 22 145 31 216 3 30 8 62 9 70 1 8 6
40 10 70 3 30 8 66 10 80 2 14 7 61 11 105 l7 80 20 -60 c10 -33 21 -85 24
-115 10 -106 41 -94 81 32 124 390 140 448 167 638 20 133 26 405 13 535 -37
360 -187 775 -390 1073 -63 93 -37 81 67 -32 73 -80 105 -100 119 -77 16 25
-102 368 -175 514 -165 327 -503 636 -824 752 -27 10 -53 21 -57 24 -4 3 -9
28 -13 55 -18 151 -71 320 -155 491 -53 108 -82 147 -103 139 -8 -3 -21 -40
-31 -82 -9 -42 -25 -92 -35 -110 l-18 -34 -27 64 c-37 86 -109 206 -176 297
-185 249 -521 483 -815 570 -84 24 -220 34 -235 16z"/>
</g>
</svg>
